# xmcd
#
# Track frame offsets: 
#        150
#        16051
#        33054
#        50552
#        65434
#        83814
#        95820
#        108156
#        124436
#        137151
#        146761
#        161867
#        175518
#        188857
#        202564
#        216730
#
# Disc length: 3066 seconds
#
# Revision: 0
# Processed by: cddbd v1.5.2PL0 Copyright (c) Steve Scherf et al.
# Submitted via: ExactAudioCopy v0.99pb4
#
DISCID=e30bf810
DTITLE=Lynn Anderson - The Best of Lynn Anderson
DYEAR=2003
DGENRE=Country
TTITLE0=You Needed Me
TTITLE1=Blue Bayou
TTITLE2=close To You
TTITLE3=We've Only Just Begun
TTITLE4=Midnight Train To Georgia
TTITLE5=You Don't Have To Say You Love Me
TTITLE6=Stand By Your Man
TTITLE7=When I Dream
TTITLE8=I Fal To Pieces
TTITLE9=Snowbird
TTITLE10=Desperado
TTITLE11=Rose Garden
TTITLE12=Top Of The World
TTITLE13=Talking In Your Sleep
TTITLE14=Cry
TTITLE15=Danny's Song
EXTD=
EXTT0=
EXTT1=
EXTT2=
EXTT3=
EXTT4=
EXTT5=
EXTT6=
EXTT7=
EXTT8=
EXTT9=
EXTT10=
EXTT11=
EXTT12=
EXTT13=
EXTT14=
EXTT15=
PLAYORDER=
